PathFileType	4	(X/Y/Z)	2014001\dynamic\2014001_C3_04.trc
DataRate	CameraRate	NumFrames	NumMarkers	Units	OrigDataRate	OrigDataStartFrame	OrigNumFrames
100.000000	100.000000	4	52	mm	100.000000	89	178
Frame#	Time	L_IAS			L_IPS			R_IPS			R_IAS			L_FTC			L_FLE			L_FME			L_FAX			L_TTC			L_FAL			L_TAM			L_FCC			L_FM1			L_FM2			L_FM5			R_FTC			R_FLE			R_FME			R_FAX			R_TTC			R_FAL			R_TAM			R_FCC			R_FM1			R_FM2			R_FM5			CV7			TV10			SXS			SJN			L_SIA			L_SRS			L_SAA			L_SAE			L_HLE			L_HME			L_UOA			L_RSP			L_UHE			L_HM2			L_HM5			R_SIA			R_SRS			R_SAA			R_SAE			R_HLE			R_HME			R_UOA			R_RSP			R_UHE			R_HM2			R_HM5			
		X1	Y1	Z1	X2	Y2	Z2	X3	Y3	Z3	X4	Y4	Z4	X5	Y5	Z5	X6	Y6	Z6	X7	Y7	Z7	X8	Y8	Z8	X9	Y9	Z9	X10	Y10	Z10	X11	Y11	Z11	X12	Y12	Z12	X13	Y13	Z13	X14	Y14	Z14	X15	Y15	Z15	X16	Y16	Z16	X17	Y17	Z17	X18	Y18	Z18	X19	Y19	Z19	X20	Y20	Z20	X21	Y21	Z21	X22	Y22	Z22	X23	Y23	Z23	X24	Y24	Z24	X25	Y25	Z25	X26	Y26	Z26	X27	Y27	Z27	X28	Y28	Z28	X29	Y29	Z29	X30	Y30	Z30	X31	Y31	Z31	X32	Y32	Z32	X33	Y33	Z33	X34	Y34	Z34	X35	Y35	Z35	X36	Y36	Z36	X37	Y37	Z37	X38	Y38	Z38	X39	Y39	Z39	X40	Y40	Z40	X41	Y41	Z41	X42	Y42	Z42	X43	Y43	Z43	X44	Y44	Z44	X45	Y45	Z45	X46	Y46	Z46	X47	Y47	Z47	X48	Y48	Z48	X49	Y49	Z49	X50	Y50	Z50	X51	Y51	Z51	X52	Y52	Z52	

90	0.89	118.3513717651368	883.3788452148442	-479.0489196777346	200.3786926269532	917.3039550781255	-301.2610168457032	291.4035949707032	910.422973632813	-307.5071411132814	358.1583557128907	885.4274291992192	-489.7527465820315	65.65579986572268	793.8478393554692	-407.739685058594	58.20231246948245	450.8944091796877	-482.336364746094	172.6104278564454	426.0755615234377	-523.2346191406252	54.90209960937503	408.6117858886721	-441.5357971191409	91.23981475830081	353.0986633300782	-493.425476074219	97.13037109375006	170.5302734375001	-231.3066864013673	177.7907104492188	155.1253662109376	-269.2593383789064	149.3784637451172	160.2043914794922	-180.2202453613282	147.4410858154297	49.776725769043	-320.0946655273439	90.19129943847659	58.50802230834964	-321.8002014160157	57.51241683959964	75.48683929443362	-272.627655029297	416.9436035156252	785.1702270507817	-401.2832946777346	370.5205078125001	434.388854980469	-447.1544189453127	252.6042938232423	429.0943603515627	-462.2356567382815	371.7328491210939	368.545867919922	-426.6630554199221	322.5210571289064	362.5909118652345	-490.9156188964846	314.8467407226564	60.95789337158206	-370.5288391113282	233.4816284179689	78.30198669433597	-410.7075500488284	257.6814880371095	24.0072708129883	-328.0418090820314	246.2515563964845	20.7967872619629	-516.6236572265627	310.977020263672	29.83579635620119	-519.8845214843752	354.8814086914064	16.74450111389161	-460.0459289550784	262.0228881835939	1378.333374023438	-336.4829406738282	252.147186279297	1147.479248046875	-276.4263305664064	237.3776092529298	1161.555541992188	-513.2063598632815	250.7113494873048	1323.309936523438	-465.5504150390627	160.5010223388672	1192.76953125	-268.2243041992189	173.3163452148438	1323.698120117188	-286.4163208007814	61.62650680541995	1326.997314453125	-356.2665100097657	75.57411956787112	1338.836181640625	-397.1647033691409	-10.73778820037842	1058.405029296875	-368.730194091797	67.02737426757815	1023.411254882813	-343.3534545898439	15.56029891967774	1024.286376953125	-338.9086914062501	13.80546474456788	822.631958007813	-454.5864562988284	-54.42321395874026	827.462768554688	-411.6869201660159	3.852576255798342	738.8807373046877	-480.541687011719	-63.36310577392581	750.4062500000002	-403.1972961425784	372.2716674804689	1186.115112304688	-279.0541076660157	351.2919006347657	1308.630615234375	-299.7731933593751	449.0010070800784	1303.528198242188	-385.906188964844	433.334899902344	1310.02197265625	-434.5335998535159	502.0989685058596	1007.010925292969	-415.6838684082034	427.8465881347659	988.904174804688	-382.8735656738282	473.7879333496096	982.886840820313	-382.7054443359376	467.7296447753909	805.786499023438	-525.2542724609377	533.4949951171877	801.8696289062505	-476.3711853027346	484.0627746582034	718.4674072265627	-561.8960571289065	534.846618652344	720.627868652344	-473.0419006347659	
91	0.9	120.2290420532227	884.8037719726567	-489.180358886719	201.0329589843751	918.3118286132817	-311.0509338378907	291.9840393066407	911.2124023437505	-316.9961547851564	360.0841369628907	885.7529296875005	-498.5537109375002	66.52036285400393	795.442504882813	-419.2519226074221	60.25195312500003	453.3925781250002	-500.0693359375002	174.5531768798829	429.7406311035159	-541.0092773437502	57.15613937377933	409.6657714843752	-460.5048522949221	93.06326293945315	356.1811523437501	-514.444030761719	98.13370513916021	162.2025451660157	-260.4237670898439	178.9562072753907	148.4661560058594	-298.8904418945314	150.1694946289063	149.0879669189454	-209.4688262939454	148.2116088867188	46.45237350463869	-355.6058044433595	91.07076263427737	55.63323593139651	-356.9405822753907	58.337028503418	69.68412017822268	-306.9225463867189	417.7608947753909	785.5637207031255	-409.0966491699221	371.0449523925782	434.3968505859377	-448.6477966308596	253.3220672607423	428.9153442382815	-464.2732543945315	372.1441650390626	368.6575012207032	-427.6104431152346	323.1260681152345	362.2927856445314	-491.858581542969	314.8500366210939	61.06667327880862	-370.5141601562501	233.6098022460939	78.48638916015628	-411.0072937011721	257.4235229492189	24.13817787170412	-328.3685302734376	246.3846282958986	20.88826179504395	-516.6870117187502	311.0712280273439	29.82214736938478	-519.9310302734377	354.9708557128907	16.74448966979981	-459.9985961914065	262.7271118164064	1379.255004882813	-347.0896301269532	253.3939514160157	1148.39111328125	-286.7086181640626	238.0547485351564	1162.332275390625	-523.2751464843752	250.9786987304689	1324.136474609375	-475.7473754882815	161.9830780029297	1193.497314453125	-278.2055053710939	174.6007080078126	1324.43359375	-296.4227905273439	62.76646423339847	1327.623413085938	-365.314910888672	76.16104125976565	1339.416259765625	-406.3594970703127	-9.624226570129398	1059.274536132813	-374.779998779297	68.77639770507815	1024.584228515625	-350.1665344238282	17.25677299499512	1025.745483398438	-345.019989013672	12.76282691955567	821.9264526367192	-456.4939880371096	-54.89958572387698	828.0429077148442	-412.6245422363284	2.332136631011964	737.3623657226565	-480.0406799316409	-64.03215026855472	751.233093261719	-402.072692871094	374.1531372070314	1187.530395507813	-290.013397216797	352.5339660644532	1309.80859375	-310.5856018066407	449.814880371094	1305.283569335938	-397.4585876464846	433.7024230957034	1311.709594726563	-445.8582458496096	504.6141662597659	1009.082641601563	-430.1754455566409	430.4819946289065	990.039672851563	-397.3143005371096	476.6193847656252	984.0729370117192	-397.3347778320315	469.2839355468752	810.3229370117192	-544.3972778320315	535.3501586914065	805.190795898438	-496.1248168945315	485.6745605468752	724.213073730469	-583.6646728515627	536.8550415039065	723.8469238281252	-494.9888305664065	
92	0.91	122.0344314575196	885.9511108398442	-499.2716064453127	201.6279754638673	919.0346679687505	-320.9124145507814	292.4535217285157	911.817749023438	-326.4518127441407	361.9345092773439	885.8723754882817	-507.3170471191409	67.27693939208987	796.7817993164067	-430.5701599121096	62.31897354125979	455.6433410644534	-517.2645263671877	176.480453491211	433.1447448730471	-558.1868286132815	59.40995788574222	410.4062805175784	-479.0034484863284	94.90700531005862	359.0981750488282	-534.9010009765627	99.25535583496099	153.3175201416016	-290.2108154296876	180.2061004638672	141.3022003173829	-329.2630920410157	151.1855010986329	137.2946929931641	-239.6990966796876	148.7863311767579	43.01031875610353	-391.7232666015627	91.76421356201175	52.66792678833011	-392.492614746094	59.10049819946292	63.75942993164065	-341.6994934082032	418.5260314941409	785.8493041992192	-416.8312988281252	371.5576782226564	434.4226684570315	-450.0618591308596	254.0216522216798	428.7113037109377	-466.2533874511721	372.5417785644532	368.7913208007814	-428.4945068359377	323.7451782226564	362.0141906738282	-492.7464904785159	314.822235107422	61.20264053344729	-370.5090942382814	233.7238769531251	78.6845626831055	-411.3396301269534	257.1552734375001	24.26447677612306	-328.7004699707032	246.5192718505861	20.98637962341309	-516.7562255859377	311.1653442382814	29.8351459503174	-519.981628417969	355.0503540039064	16.76325607299805	-459.9506530761721	263.3965148925782	1379.979614257813	-357.6590881347657	254.5675659179689	1149.120239257813	-296.962860107422	238.7377471923829	1162.88232421875	-533.366638183594	251.2420196533204	1324.740844726563	-485.9796142578127	163.4126281738282	1193.983276367188	-288.2269897460939	175.8259429931641	1324.931640625	-306.4558105468751	63.9020919799805	1328.008422851563	-374.3792419433595	76.73032379150393	1339.754272460938	-415.5721130371096	-8.640708923339847	1059.952392578125	-380.7919311523439	70.32097625732425	1025.517578125	-357.0250854492189	18.81807518005372	1026.980224609375	-351.1018981933595	11.70897102355957	821.2300415039067	-458.6177978515627	-55.33337020874026	828.5189819335942	-413.7709655761721	0.8393711447715764	735.9978637695315	-479.9354248046877	-64.52994537353518	751.960144042969	-401.3062744140627	375.9065856933595	1188.698364257813	-300.9754943847657	353.6802978515626	1310.77099609375	-321.387420654297	450.5672302246096	1306.830322265625	-408.9115905761721	434.0577087402346	1313.191040039063	-457.0671997070315	507.0102233886721	1010.9580078125	-444.6171875000002	433.0086059570315	991.0238647460942	-411.7332763671877	479.3100891113284	985.0517578125005	-412.007751464844	470.7675476074221	814.857055664063	-563.4831542968752	537.0686035156252	808.4523925781255	-515.7860107421877	487.0912170410159	729.9644165039065	-605.2640380859377	538.616394042969	727.0882568359377	-516.8179321289065	
93	0.92	123.737419128418	886.7994995117192	-509.3210144042971	202.1797790527345	919.4519653320317	-330.8624267578126	292.8265075683595	912.235961914063	-335.8905334472657	363.6758728027345	885.7851562500005	-516.0796508789065	67.95008850097659	797.8276367187505	-441.6960449218752	64.38388824462893	457.5813598632815	-533.9219360351565	178.3888854980469	436.2229003906252	-574.7542114257815	61.63329696655276	410.7841491699221	-497.0460510253909	96.7654647827149	361.7998657226564	-554.789245605469	100.4900131225587	144.0367431640626	-320.6887207031251	181.5426940917969	133.8023834228516	-360.3684082031251	152.4188537597657	125.0221176147462	-270.9335327148439	149.1494598388672	39.61004638671876	-428.3874511718752	92.25875091552737	49.77008819580081	-428.4039306640627	59.78834152221683	57.89402770996097	-376.9211425781251	419.245788574219	786.0332031250005	-424.527282714844	372.0579833984376	434.4604492187502	-451.4375305175784	254.6977996826173	428.4765930175784	-468.190856933594	372.9228820800782	368.9414062500001	-429.3489990234377	324.3760681152345	361.7407226562501	-493.6107482910159	314.7608642578126	61.36592483520511	-370.515838623047	233.8191223144532	78.89361572265628	-411.7052001953127	256.8746032714845	24.39875984191896	-329.0246582031251	246.658905029297	21.08086967468262	-516.832946777344	311.2644653320314	29.86359977722169	-520.0379028320315	355.1211853027345	16.78893661499024	-459.9009704589846	264.0260009765626	1380.492065429688	-368.2113342285157	255.6697540283204	1149.659912109375	-307.1872863769532	239.4213409423829	1163.181884765625	-543.4829101562502	251.4995574951173	1325.103637695313	-496.258483886719	164.7997436523438	1194.226684570313	-298.2725524902345	176.989730834961	1325.186767578125	-316.5257263183595	65.0251388549805	1328.134887695313	-383.4788818359376	77.28031921386722	1339.83154296875	-424.8228759765627	-7.780704975128177	1060.418823242188	-386.803894042969	71.65854644775393	1026.196533203125	-363.9283142089845	20.24067306518555	1027.970825195313	-357.1929626464845	10.64496421813965	820.502319335938	-460.9880981445315	-55.72539901733401	828.854370117188	-415.1609497070315	-0.634661912918091	734.7359619140627	-480.2655029296877	-64.86579895019534	752.535339355469	-400.9299926757815	377.5315856933595	1189.613647460938	-311.9425354003907	354.7339172363282	1311.511840820313	-332.1887817382814	451.2592773437502	1308.139282226563	-420.2701721191409	434.4016418457034	1314.439453125	-468.1774597167971	509.2883605957034	1012.612609863282	-458.9988708496096	435.4331359863284	991.8288574218755	-426.1183166503909	481.8487548828127	985.794555664063	-426.7366333007815	472.173034667969	819.3556518554692	-582.4825439453127	538.6494140625002	811.621215820313	-535.326110839844	488.314880371094	735.6815185546877	-626.6639404296877	540.1351318359377	730.3157348632815	-538.4968872070315	
